<svg xmlns="http://www.w3.org/2000/svg" viewBox="-772 3143 69.984 70">
  <defs>
    <style>
      .cls-1 {
        fill: #333;
      }

      .cls-2 {
        fill: #fe0900;
      }

      .cls-3 {
        fill: none;
      }
    </style>
  </defs>
  <g id="cash" transform="translate(-772.034 3143)">
    <g id="Group_30" data-name="Group 30" transform="translate(0.034)">
      <path id="Path_52" data-name="Path 52" class="cls-1" d="M166.354,90.595l-1.6-1.6a2.067,2.067,0,0,0,0-2.921,2.115,2.115,0,0,0-2.921,0l-1.6-1.6,1.129-1.129a2.067,2.067,0,0,0,0-2.921,2.115,2.115,0,0,0-2.921,0l-1.129,1.129-1.6-1.6,2.259-2.259a2.065,2.065,0,1,0-2.921-2.921L152.8,77.042l-1.6-1.6,1.129-1.129a2.065,2.065,0,0,0-2.921-2.921l-1.129,1.129-1.6-1.6,1.129-1.129a4.321,4.321,0,0,1,7.32,2.349,4.323,4.323,0,0,1,5.48,5.48A4.32,4.32,0,0,1,164,83.274a4.322,4.322,0,0,1,2.35,7.321Z" transform="translate(-112.477 -52.547)"/>
      <path id="Path_53" data-name="Path 53" class="cls-1" d="M82.276,219.194l-3.234,3.233L71.164,225.8,59.732,236.092l1.511,1.678,3.84-3.456c.459.231.915.47,1.377.677l.924-2.06c-.165-.075-.329-.165-.494-.243l5.507-4.957,7.934-3.4,3.542-3.543Z" transform="translate(-45.806 -168.062)"/>
      <path id="Path_54" data-name="Path 54" class="cls-2" d="M68.4,51.168l-17.12,17.12,3.936,3.936,3.869-3.741.014-.014a2.381,2.381,0,0,1,3.666,3l-3.32,4.978L80.274,97.277l17.12-17.12ZM78.448,78.332a5.811,5.811,0,1,1,0-8.218A5.812,5.812,0,0,1,78.448,78.332Z" transform="translate(-39.329 -39.232)"/>
      <path id="Path_55" data-name="Path 55" class="cls-3" d="M127.3,134.122a6.894,6.894,0,0,1-4.908-2.034h0a6.937,6.937,0,1,1,4.908,2.034Zm0-11.623a4.682,4.682,0,0,0-3.311,7.994h0A4.682,4.682,0,1,0,127.3,122.5Z" transform="translate(-92.291 -92.191)"/>
      <path id="Path_56" data-name="Path 56" class="cls-1" d="M19.38,126.393l1.879,1.252,5.18-7.77a4.64,4.64,0,0,0-7.143-5.854L12.5,120.815l-2.259,11.293-3.567,3.569c-.1-.2-.2-.39-.3-.588l-2.051.946c.207.446.439.883.666,1.322L1.452,140.9l1.6,1.6,9.276-9.276,2.259-11.293,6.311-6.311a2.381,2.381,0,0,1,3.666,3Z" transform="translate(-1.121 -86.383)"/>
      <path id="Path_57" data-name="Path 57" class="cls-1" d="M8.1,94.856,6,94.013a35.039,35.039,0,0,0-1.468,4.519l2.19.549A32.87,32.87,0,0,1,8.1,94.856Z" transform="translate(-3.486 -72.082)"/>
      <path id="Path_58" data-name="Path 58" class="cls-1" d="M24.119,60.1,22.328,58.72A34.679,34.679,0,0,0,19.7,62.676l1.96,1.118A32.911,32.911,0,0,1,24.119,60.1Z" transform="translate(-15.112 -45.022)"/>
      <path id="Path_59" data-name="Path 59" class="cls-1" d="M1.946,172.829a34.7,34.7,0,0,0,1.072,4.627l2.159-.659a32.565,32.565,0,0,1-1-4.324Z" transform="translate(-1.5 -132.239)"/>
      <path id="Path_60" data-name="Path 60" class="cls-1" d="M2.293,137.277a33.345,33.345,0,0,1,.2-3.623l-2.245-.247a35.354,35.354,0,0,0-.212,3.875c0,.291,0,.579.011.867L2.3,138.1C2.3,137.823,2.294,137.548,2.293,137.277Z" transform="translate(-0.034 -102.287)"/>
      <path id="Path_61" data-name="Path 61" class="cls-1" d="M259.874,54.334a35.535,35.535,0,0,0-2.9-3.757l-1.692,1.5A33.084,33.084,0,0,1,258,55.589Z" transform="translate(-195.743 -38.779)"/>
      <path id="Path_62" data-name="Path 62" class="cls-1" d="M49.362,31.929,48,30.127a35.538,35.538,0,0,0-3.587,3.108l1.59,1.6A33.24,33.24,0,0,1,49.362,31.929Z" transform="translate(-34.061 -23.099)"/>
      <path id="Path_63" data-name="Path 63" class="cls-1" d="M288.73,127.73l2.256-.1a35.191,35.191,0,0,0-.534-4.715l-2.221.4A33.158,33.158,0,0,1,288.73,127.73Z" transform="translate(-221.002 -94.239)"/>
      <path id="Path_64" data-name="Path 64" class="cls-1" d="M280.2,88.715a35.148,35.148,0,0,0-1.783-4.4l-2.032.988a32.86,32.86,0,0,1,1.669,4.115Z" transform="translate(-211.92 -64.647)"/>
      <path id="Path_65" data-name="Path 65" class="cls-1" d="M81.935,12.389l-.827-2.1a35.014,35.014,0,0,0-4.287,2.034l1.106,1.97A32.409,32.409,0,0,1,81.935,12.389Z" transform="translate(-58.909 -7.887)"/>
      <path id="Path_66" data-name="Path 66" class="cls-1" d="M154.669,2.256a33.006,33.006,0,0,1,4.419.442L159.463.47A35.311,35.311,0,0,0,154.741,0Z" transform="translate(-118.597)"/>
      <path id="Path_67" data-name="Path 67" class="cls-1" d="M221.218,262.856l1.147,1.946a35.3,35.3,0,0,0,3.917-2.679l-1.4-1.773A33.312,33.312,0,0,1,221.218,262.856Z" transform="translate(-169.622 -199.617)"/>
      <path id="Path_68" data-name="Path 68" class="cls-1" d="M226.5,25.952a32.784,32.784,0,0,1,3.553,2.667l1.476-1.712a35.412,35.412,0,0,0-3.8-2.85Z" transform="translate(-173.672 -18.445)"/>
      <path id="Path_69" data-name="Path 69" class="cls-1" d="M192.126,8.909a32.732,32.732,0,0,1,4.139,1.614l.962-2.043A34.677,34.677,0,0,0,192.8,6.754Z" transform="translate(-147.316 -5.178)"/>
      <path id="Path_70" data-name="Path 70" class="cls-1" d="M273.552,203.672l1.985,1.078a34.982,34.982,0,0,0,1.979-4.317l-2.113-.8A32.4,32.4,0,0,1,273.552,203.672Z" transform="translate(-209.748 -153.066)"/>
      <path id="Path_71" data-name="Path 71" class="cls-1" d="M286.982,166.982l2.2.5a34.9,34.9,0,0,0,.741-4.689l-2.25-.2A32.616,32.616,0,0,1,286.982,166.982Z" transform="translate(-220.045 -124.665)"/>
      <path id="Path_72" data-name="Path 72" class="cls-1" d="M251.055,236.42l1.624,1.571a35,35,0,0,0,3.063-3.629l-1.819-1.337A33.18,33.18,0,0,1,251.055,236.42Z" transform="translate(-192.499 -178.667)"/>
      <path id="Path_73" data-name="Path 73" class="cls-1" d="M186.186,281.023l.58,2.184a34.674,34.674,0,0,0,4.494-1.528l-.871-2.085A32.576,32.576,0,0,1,186.186,281.023Z" transform="translate(-142.762 -214.372)"/>
      <path id="Path_74" data-name="Path 74" class="cls-1" d="M108.2,287.008a35.544,35.544,0,0,0,4.639,1.01l.329-2.235a32.718,32.718,0,0,1-4.34-.945Z" transform="translate(-82.966 -218.392)"/>
      <path id="Path_75" data-name="Path 75" class="cls-1" d="M114.6,1.507,115.13,3.7a32.958,32.958,0,0,1,4.377-.751L119.276.7A35.306,35.306,0,0,0,114.6,1.507Z" transform="translate(-87.873 -0.539)"/>
      <path id="Path_76" data-name="Path 76" class="cls-1" d="M148.785,289.582l-.384,0-.02,2.259.4,0a35.442,35.442,0,0,0,4.333-.265l-.278-2.241A33.408,33.408,0,0,1,148.785,289.582Z" transform="translate(-113.776 -221.841)"/>
    </g>
  </g>
</svg>
