<svg xmlns="http://www.w3.org/2000/svg" viewBox="-392 5125 70 70">
  <defs>
    <style>
      .cls-1 {
        fill: #333;
      }

      .cls-2 {
        fill: #fe0900;
      }

      .cls-3 {
        fill: #fff;
      }
    </style>
  </defs>
  <g id="computer_3_" data-name="computer (3)" transform="translate(-392 5125)">
    <g id="Group_38" data-name="Group 38" transform="translate(5.645 20.323)">
      <rect id="Rectangle_2822" data-name="Rectangle 2822" class="cls-1" width="2.258" height="11.29" transform="translate(0 3.387)"/>
      <rect id="Rectangle_2823" data-name="Rectangle 2823" class="cls-1" width="22.581" height="2.258" transform="translate(22.581)"/>
      <path id="Path_97" data-name="Path 97" class="cls-1" d="M96.452,224v22.581H42.258v-5.645H40v9.032a5.652,5.652,0,0,0,5.645,5.645h6.774v4.516H47.9v2.258h42.9v-2.258H86.29v-4.516h6.774a5.652,5.652,0,0,0,5.645-5.645V224ZM84.032,260.129H54.677v-4.516H84.032Zm9.032-6.774H45.645a3.391,3.391,0,0,1-3.387-3.387v-1.129H96.452v1.129A3.391,3.391,0,0,1,93.065,253.355Z" transform="translate(-40 -212.71)"/>
    </g>
    <g id="Group_39" data-name="Group 39">
      <path id="Path_98" data-name="Path 98" class="cls-2" d="M372.323,135.806H352V120h20.323Z" transform="translate(-302.323 -103.065)"/>
      <path id="Path_99" data-name="Path 99" class="cls-2" d="M20.323,255.806H0V240H20.323Z" transform="translate(0 -206.129)"/>
      <path id="Path_100" data-name="Path 100" class="cls-2" d="M212.323,228.323H192V208h20.323Z" transform="translate(-164.903 -178.645)"/>
      <path id="Path_101" data-name="Path 101" class="cls-2" d="M29.355,24.839H0V0H29.355Z"/>
    </g>
    <g id="Group_40" data-name="Group 40" transform="translate(4.516 4.516)">
      <rect id="Rectangle_2824" data-name="Rectangle 2824" class="cls-3" width="2.258" height="2.258"/>
      <rect id="Rectangle_2825" data-name="Rectangle 2825" class="cls-3" width="15.806" height="2.258" transform="translate(4.516)"/>
      <rect id="Rectangle_2826" data-name="Rectangle 2826" class="cls-3" width="2.258" height="2.258" transform="translate(18.065 13.548)"/>
      <rect id="Rectangle_2827" data-name="Rectangle 2827" class="cls-3" width="15.806" height="2.258" transform="translate(0 13.548)"/>
      <rect id="Rectangle_2828" data-name="Rectangle 2828" class="cls-3" width="20.323" height="2.258" transform="translate(0 9.032)"/>
      <rect id="Rectangle_2829" data-name="Rectangle 2829" class="cls-3" width="20.323" height="2.258" transform="translate(0 4.516)"/>
      <rect id="Rectangle_2830" data-name="Rectangle 2830" class="cls-3" width="2.258" height="2.258" transform="translate(49.677 16.935)"/>
      <rect id="Rectangle_2831" data-name="Rectangle 2831" class="cls-3" width="6.774" height="2.258" transform="translate(54.194 16.935)"/>
      <rect id="Rectangle_2832" data-name="Rectangle 2832" class="cls-3" width="2.258" height="2.258" transform="translate(58.71 21.452)"/>
      <rect id="Rectangle_2833" data-name="Rectangle 2833" class="cls-3" width="6.774" height="2.258" transform="translate(49.677 21.452)"/>
      <rect id="Rectangle_2834" data-name="Rectangle 2834" class="cls-3" width="2.258" height="2.258" transform="translate(0 33.871)"/>
      <rect id="Rectangle_2835" data-name="Rectangle 2835" class="cls-3" width="6.774" height="2.258" transform="translate(4.516 33.871)"/>
      <rect id="Rectangle_2836" data-name="Rectangle 2836" class="cls-3" width="2.258" height="2.258" transform="translate(9.032 38.387)"/>
      <rect id="Rectangle_2837" data-name="Rectangle 2837" class="cls-3" width="6.774" height="2.258" transform="translate(0 38.387)"/>
      <rect id="Rectangle_2838" data-name="Rectangle 2838" class="cls-3" width="11.29" height="2.258" transform="translate(27.097 29.355)"/>
      <rect id="Rectangle_2839" data-name="Rectangle 2839" class="cls-3" width="11.29" height="2.258" transform="translate(27.097 33.871)"/>
      <rect id="Rectangle_2840" data-name="Rectangle 2840" class="cls-3" width="11.29" height="2.258" transform="translate(27.097 38.387)"/>
    </g>
    <path id="Path_102" data-name="Path 102" class="cls-2" d="M314.065,11.29H296V0h18.065Z" transform="translate(-254.226)"/>
    <rect id="Rectangle_2841" data-name="Rectangle 2841" class="cls-3" width="9.032" height="2.258" transform="translate(46.29 4.516)"/>
  </g>
</svg>
