<svg xmlns="http://www.w3.org/2000/svg" viewBox="-363 3150 57 57">
  <defs>
    <style>
      .cls-1 {
        fill: #fe0900;
      }

      .cls-2 {
        fill: #333;
      }
    </style>
  </defs>
  <g id="email_4_" data-name="email (4)" transform="translate(-363 3150)">
    <g id="Group_29" data-name="Group 29">
      <path id="Path_50" data-name="Path 50" class="cls-1" d="M74.292,37.5a1.839,1.839,0,1,1-3.168,0H51.563V54.048H80.982V37.5ZM59.837,49.452a1.839,1.839,0,1,1,1.839-1.839A1.838,1.838,0,0,1,59.837,49.452Z" transform="translate(-41.45 -30.145)"/>
      <rect id="Rectangle_2776" data-name="Rectangle 2776" class="cls-2" width="29.419" height="1.839" transform="translate(10.113 26.661)"/>
      <path id="Path_51" data-name="Path 51" class="cls-2" d="M54.242,0a2.762,2.762,0,0,0-2.758,2.758,2.727,2.727,0,0,0,.3,1.229l-7.656,8.294V0H5.516V20.666L0,24.528V57H49.645V24.528l-5.516-3.861V14.993l8.978-9.727A2.756,2.756,0,1,0,54.242,0ZM20.516,41.24,1.839,54.315V26.874Zm4.306-3.015-2.728,1.91L18.92,37.694h11.8L27.55,40.135Zm-8.274-2.371v.014l-3.6-2.772H36.7l-3.6,2.772v-.014Zm8.274,4.616L45.81,55.161H3.835Zm4.306.769L47.806,26.874V54.315ZM42.29,1.839V14.274l-.122.132a2.679,2.679,0,0,0-2.977-.3L33.782,9.377a2.727,2.727,0,0,0,.234-1.1,2.758,2.758,0,0,0-5.516,0,2.7,2.7,0,0,0,.045.442L20.191,15.4a2.732,2.732,0,0,0-1.8-.69,2.758,2.758,0,1,0,2.758,2.758,2.7,2.7,0,0,0-.045-.442l8.353-6.683a2.684,2.684,0,0,0,3.065.37l5.409,4.733a2.727,2.727,0,0,0-.234,1.1,2.746,2.746,0,0,0,4.6,2.041V28.8l-3.2,2.461H10.554L7.355,28.8V1.839Zm-1.839,13.79a.919.919,0,1,1-.919.919A.921.921,0,0,1,40.452,15.629ZM31.258,9.194a.919.919,0,1,1,.919-.919A.921.921,0,0,1,31.258,9.194ZM19.307,17.468a.919.919,0,1,1-.919-.919A.921.921,0,0,1,19.307,17.468ZM5.516,27.383,2.472,25.041l3.044-2.13Zm41.657-2.342-3.044,2.342V22.911ZM54.242,3.677a.919.919,0,1,1,.919-.919A.921.921,0,0,1,54.242,3.677Z"/>
    </g>
  </g>
</svg>
