<svg xmlns="http://www.w3.org/2000/svg" viewBox="-1155 963 51.5 59.336">
  <defs>
    <style>
      .cls-1 {
        fill: #fe0900;
      }

      .cls-2 {
        fill: #333;
      }
    </style>
  </defs>
  <g id="guarantee_3_" data-name="guarantee (3)" transform="translate(-1174.258 963)">
    <g id="Group_22" data-name="Group 22" transform="translate(19.258)">
      <circle id="Ellipse_25" data-name="Ellipse 25" class="cls-1" cx="13.352" cy="13.352" r="13.352" transform="translate(16.213 12.472)"/>
      <path id="Path_31" data-name="Path 31" class="cls-2" d="M68.633,3.888A52.164,52.164,0,0,1,49.178.142L48.823,0l-.354.142A52.168,52.168,0,0,1,29.013,3.888H26.887V23.916H22.119a2.864,2.864,0,0,0-2.861,2.861V42.99a2.865,2.865,0,0,0,2.861,2.861h8.588a24.76,24.76,0,0,0,9.1,8.564l9.02,4.92,9.02-4.92A24.767,24.767,0,0,0,70.758,32.66V3.888ZM21.165,42.99V26.777a.955.955,0,0,1,.954-.954H30.7a.955.955,0,0,1,.954.954V42.99a.955.955,0,0,1-.954.954H22.119A.955.955,0,0,1,21.165,42.99Zm12.4-14.314a6.062,6.062,0,0,0,5.722-6.045V17.717a2.384,2.384,0,1,1,4.769,0v6a3.061,3.061,0,0,0,3.058,3.058H54.1a3.307,3.307,0,0,1,3.3,3.3V40.641a3.306,3.306,0,0,1-3.3,3.3H40.052a2.257,2.257,0,0,1-1.88-1.006,4.158,4.158,0,0,0-3.467-1.855H33.564V28.676ZM68.851,32.66A22.862,22.862,0,0,1,56.93,52.741l-8.107,4.422-8.107-4.422a22.873,22.873,0,0,1-8.184-7.57,2.841,2.841,0,0,0,1.013-1.993,20.877,20.877,0,0,0,8.085,7.888l7.194,3.925,7.194-3.925A20.953,20.953,0,0,0,66.944,32.661V18.194H65.036V32.661A19.047,19.047,0,0,1,55.1,49.392l-6.281,3.426-6.281-3.426A18.982,18.982,0,0,1,35.9,43.348a2.239,2.239,0,0,1,.685.649,4.158,4.158,0,0,0,3.467,1.855H54.1a5.216,5.216,0,0,0,5.21-5.21V30.08a5.216,5.216,0,0,0-5.21-5.21H47.112a1.151,1.151,0,0,1-1.15-1.15v-6a4.292,4.292,0,1,0-8.584,0v4.914a4.138,4.138,0,0,1-3.819,4.113,2.842,2.842,0,0,0-.95-2.084V9.5A57.824,57.824,0,0,0,48.823,6.13,57.834,57.834,0,0,0,65.036,9.5v1.063h1.907V7.686l-.91-.042A55.959,55.959,0,0,1,49.154,4.22L48.823,4.1l-.331.122a55.972,55.972,0,0,1-16.88,3.424l-.91.043v16.23H28.795V5.8h.218a54.047,54.047,0,0,0,19.81-3.742A54.047,54.047,0,0,0,68.632,5.8h.218V32.66Z" transform="translate(-19.258)"/>
      <rect id="Rectangle_2747" data-name="Rectangle 2747" class="cls-2" width="1.907" height="1.907" transform="translate(45.778 14.379)"/>
      <rect id="Rectangle_2748" data-name="Rectangle 2748" class="cls-2" width="6.676" height="1.907" transform="translate(3.815 40.129)"/>
    </g>
  </g>
</svg>
