<svg xmlns="http://www.w3.org/2000/svg" viewBox="-390 4818 67.742 70">
  <defs>
    <style>
      .cls-1 {
        fill: #333;
      }

      .cls-2 {
        fill: #fe0900;
      }
    </style>
  </defs>
  <g id="megaphone_4_" data-name="megaphone (4)" transform="translate(-394.688 4818)">
    <g id="Group_33" data-name="Group 33" transform="translate(4.688)">
      <path id="Path_80" data-name="Path 80" class="cls-1" d="M63.4,14.69v-.007l-1.515-.157C61.389,8.6,60.1,0,56.595,0a2.039,2.039,0,0,0-1,.279L47.1,3.112a27.263,27.263,0,0,1-8.65,1.4H27.268a18.064,18.064,0,0,0-5.318,35.327L15.57,45.161H4.688v2.258h11.7l6.628-5.524,6.983,2,2.375,2.969a1.841,1.841,0,0,1-.332,2.626,1.857,1.857,0,0,1-2.411-.171l-2.279-2.278-6.434,5.147,1.411,1.764L25.01,51.8v9.165H17.374l-2.258-1.129H4.688V62.1h9.895l2.258,1.129h8.17v1.129a5.645,5.645,0,1,0,11.291,0V63.226a3.373,3.373,0,0,0,2.507-5.645,3.335,3.335,0,0,0,0-4.516,3.335,3.335,0,0,0,0-4.516A3.373,3.373,0,0,0,36.3,42.9V40.645h2.148a27.317,27.317,0,0,1,8.657,1.4l8.5,2.833a2.094,2.094,0,0,0,1.02.279c3.5,0,4.766-8.6,5.259-14.526l1.515-.157v-.007c2.258-.128,3.275-4.023,3.275-7.891S65.656,14.817,63.4,14.69ZM53.46,29.214c-.14-2.013-.224-4.225-.224-6.633s.084-4.62.224-6.633l7.554.755a15.224,15.224,0,0,0-1,5.878,15.224,15.224,0,0,0,1,5.878ZM59.652,14.3l-6-.6c.642-6.531,1.893-10.479,2.731-11.3l.289-.1C57.389,2.762,58.931,6.187,59.652,14.3ZM33.4,51.292a4.041,4.041,0,0,0,1.266-1.614H36.3a1.129,1.129,0,1,1,0,2.258H32.106A4.088,4.088,0,0,0,33.4,51.292Zm4.033,4.031A1.13,1.13,0,0,1,36.3,56.452H31.784a1.129,1.129,0,0,1,0-2.258H36.3A1.13,1.13,0,0,1,37.43,55.323Zm-3.387,9.032a3.387,3.387,0,1,1-6.774,0V50.145l.767.765a3.846,3.846,0,0,0,.408.339,3.355,3.355,0,0,0,.837,1.816,3.335,3.335,0,0,0,0,4.516,3.373,3.373,0,0,0,2.507,5.645h2.258v1.129ZM36.3,60.968H31.785a1.129,1.129,0,1,1,0-2.258H36.3a1.129,1.129,0,1,1,0,2.258ZM37.43,46.29A1.13,1.13,0,0,1,36.3,47.419H34.976a4.06,4.06,0,0,0-.839-1.971l-.229-.287H36.3A1.13,1.13,0,0,1,37.43,46.29ZM34.043,42.9H32.1l-.789-.987-4.536-1.3c.165,0,.326.025.492.025h6.774Zm4.405-4.516H27.269a15.806,15.806,0,1,1,0-31.613H38.449A29.574,29.574,0,0,0,47.82,5.253L53.4,3.393c-1.848,4.724-2.424,13.358-2.424,19.188s.576,14.464,2.424,19.188L47.82,39.908A29.576,29.576,0,0,0,38.448,38.387Zm18.266,4.486L56.5,42.8c-.883-.689-2.189-4.654-2.85-11.338l6-.6C58.923,39.065,57.358,42.476,56.714,42.872ZM63.4,28.123c-.418-.531-1.129-2.423-1.129-5.542s.711-5.012,1.129-5.542c.418.531,1.129,2.423,1.129,5.542S63.815,27.592,63.4,28.123Z" transform="translate(-4.688)"/>
      <rect id="Rectangle_2791" data-name="Rectangle 2791" class="cls-1" width="3.387" height="2.258" transform="translate(64.355 21.452)"/>
      <rect id="Rectangle_2792" data-name="Rectangle 2792" class="cls-1" width="3.57" height="2.258" transform="translate(62.867 9.089) rotate(-18.446)"/>
      <rect id="Rectangle_2793" data-name="Rectangle 2793" class="cls-1" width="2.258" height="3.57" transform="matrix(0.316, -0.949, 0.949, 0.316, 62.867, 36.069)"/>
      <rect id="Rectangle_2794" data-name="Rectangle 2794" class="cls-2" width="4.516" height="36.129" transform="translate(29.355 4.516)"/>
    </g>
  </g>
</svg>
