<svg xmlns="http://www.w3.org/2000/svg" viewBox="-892 457 28.52 27.198">
  <defs>
    <style>
      .cls-1 {
        fill: #fff;
      }
    </style>
  </defs>
  <g id="star_1_" data-name="star (1)" transform="translate(-892 456.548)">
    <path id="Path_5" data-name="Path 5" class="cls-1" d="M14.934.9l3.628,8.586,9.288.8a.732.732,0,0,1,.417,1.282l-7.045,6.1,2.111,9.08a.731.731,0,0,1-1.091.792l-7.982-4.814L6.279,27.542a.732.732,0,0,1-1.091-.792L7.3,17.67l-7.046-6.1a.732.732,0,0,1,.417-1.282l9.288-.8L13.586.9a.731.731,0,0,1,1.348,0Z" transform="translate(0 0)"/>
  </g>
</svg>
