<svg xmlns="http://www.w3.org/2000/svg" viewBox="-762.5 963 59 59">
  <defs>
    <style>
      .cls-1 {
        fill: #333;
      }

      .cls-2 {
        fill: #fe0900;
      }
    </style>
  </defs>
  <g id="teamwork_8_" data-name="teamwork (8)" transform="translate(-762.5 963)">
    <g id="Group_23" data-name="Group 23">
      <rect id="Rectangle_2749" data-name="Rectangle 2749" class="cls-1" width="1.903" height="2.855" transform="translate(33.306 22.839)"/>
      <path id="Path_32" data-name="Path 32" class="cls-1" d="M19.984,56a5.715,5.715,0,0,0-5.624,4.758h-8.4A5.965,5.965,0,0,0,0,66.715v7.841a3.334,3.334,0,0,0,3.331,3.331,3.3,3.3,0,0,0,1.427-.334V91.685a3.326,3.326,0,0,0,5.71,2.324,3.28,3.28,0,0,0,3.806.673v3.665a3.326,3.326,0,0,0,5.71,2.324,3.326,3.326,0,0,0,5.71-2.324h-1.9a1.427,1.427,0,0,1-2.855,0V85.5h-1.9V98.347a1.427,1.427,0,0,1-2.855,0V72.177h-1.9v9.04a1.427,1.427,0,0,1-2.855,0V73.376a4.058,4.058,0,0,1,4.054-4.054h9.021v-1.9H16.177V65.954A5.706,5.706,0,1,0,19.984,56ZM12.847,84.548a3.3,3.3,0,0,0,1.427-.334v7.471a1.427,1.427,0,1,1-2.855,0V84.214A3.3,3.3,0,0,0,12.847,84.548ZM9.516,73.376V91.685a1.427,1.427,0,1,1-2.855,0V65.516h-1.9v9.04a1.427,1.427,0,1,1-2.855,0V66.715a4.058,4.058,0,0,1,4.054-4.054h8.4a5.69,5.69,0,0,0,1.38,2.855H14.274V67.54A5.968,5.968,0,0,0,9.516,73.376Zm10.468-7.86A3.806,3.806,0,1,1,23.79,61.71,3.81,3.81,0,0,1,19.984,65.516Z" transform="translate(0 -49.339)"/>
      <rect id="Rectangle_2750" data-name="Rectangle 2750" class="cls-1" width="1.903" height="2.855" transform="translate(23.79 22.839)"/>
      <path id="Path_33" data-name="Path 33" class="cls-1" d="M51.419,5.71a5.71,5.71,0,1,0-5.71,5.71A5.715,5.715,0,0,0,51.419,5.71ZM45.71,9.516A3.806,3.806,0,1,1,49.516,5.71,3.81,3.81,0,0,1,45.71,9.516Z" transform="translate(-35.242)"/>
      <path id="Path_34" data-name="Path 34" class="cls-1" d="M371.419,5.71a5.71,5.71,0,1,0-5.71,5.71A5.715,5.715,0,0,0,371.419,5.71Zm-5.71,3.806a3.806,3.806,0,1,1,3.806-3.806A3.81,3.81,0,0,1,365.71,9.516Z" transform="translate(-317.177)"/>
      <path id="Path_35" data-name="Path 35" class="cls-1" d="M299.736,60.758h-8.4a5.719,5.719,0,1,0-1.818,5.2v1.465H281.2v1.9h9.021a4.058,4.058,0,0,1,4.054,4.054v7.841a1.427,1.427,0,1,1-2.855,0v-9.04h-1.9V98.347a1.427,1.427,0,1,1-2.855,0V85.5h-1.9V98.347a1.427,1.427,0,1,1-2.855,0H280a3.326,3.326,0,0,0,5.71,2.324,3.326,3.326,0,0,0,5.71-2.324V94.682a3.28,3.28,0,0,0,3.806-.673,3.326,3.326,0,0,0,5.71-2.324V77.553a3.3,3.3,0,0,0,1.427.334,3.334,3.334,0,0,0,3.331-3.331V66.715A5.965,5.965,0,0,0,299.736,60.758ZM285.71,65.516a3.806,3.806,0,1,1,3.806-3.806A3.81,3.81,0,0,1,285.71,65.516Zm7.137,27.6a1.429,1.429,0,0,1-1.427-1.427V84.214a3.217,3.217,0,0,0,2.855,0v7.471A1.429,1.429,0,0,1,292.847,93.113ZM303.79,74.556a1.427,1.427,0,0,1-2.855,0v-9.04h-1.9V91.685a1.427,1.427,0,1,1-2.855,0V73.376a5.966,5.966,0,0,0-4.758-5.835V65.516h-1.466a5.69,5.69,0,0,0,1.38-2.855h8.4a4.058,4.058,0,0,1,4.054,4.054v7.841Z" transform="translate(-246.694 -49.339)"/>
    </g>
    <g id="Group_24" data-name="Group 24" transform="translate(19.032 13.323)">
      <path id="Path_36" data-name="Path 36" class="cls-2" d="M211.419,117.71a5.71,5.71,0,1,0-5.71,5.71A5.715,5.715,0,0,0,211.419,117.71Z" transform="translate(-195.242 -112)"/>
      <path id="Path_37" data-name="Path 37" class="cls-2" d="M174.978,208h-9.021A5.965,5.965,0,0,0,160,213.957V221.8a3.334,3.334,0,0,0,3.331,3.331,3.3,3.3,0,0,0,1.427-.334v14.132a3.326,3.326,0,0,0,5.71,2.324,3.326,3.326,0,0,0,5.71-2.324V224.8a3.3,3.3,0,0,0,1.427.334,3.334,3.334,0,0,0,3.331-3.331v-7.841A5.965,5.965,0,0,0,174.978,208Z" transform="translate(-160 -196.581)"/>
    </g>
  </g>
</svg>
