<svg xmlns="http://www.w3.org/2000/svg" viewBox="-1397.58 6648 19.438 11">
  <defs>
    <style>
      .cls-1 {
        fill: #fff;
        fill-rule: evenodd;
      }
    </style>
  </defs>
  <g id="vk_2_" data-name="vk (2)" transform="translate(-1397.58 6581.942)">
    <path id="XMLID_807_" class="cls-1" d="M16.729,73.052a26.455,26.455,0,0,1,1.9,1.915,5.564,5.564,0,0,1,.682.983c.262.508.025,1.067-.431,1.1H16.052a2.186,2.186,0,0,1-1.8-.733c-.392-.4-.755-.824-1.132-1.237a2.681,2.681,0,0,0-.51-.453.592.592,0,0,0-.943.229,2.975,2.975,0,0,0-.3,1.321c-.03.667-.232.842-.9.873a7.242,7.242,0,0,1-4.052-.871,8.953,8.953,0,0,1-2.726-2.553A34.368,34.368,0,0,1,.1,67.226c-.227-.5-.061-.775.5-.784.924-.018,1.847-.017,2.772,0a.814.814,0,0,1,.769.576A17.185,17.185,0,0,0,6.014,70.5a2.97,2.97,0,0,0,.71.78.431.431,0,0,0,.733-.215,2.416,2.416,0,0,0,.163-.73,10.875,10.875,0,0,0-.046-2.56,1.067,1.067,0,0,0-.909-.976c-.271-.051-.23-.152-.1-.306a1.018,1.018,0,0,1,.868-.432h3.2c.5.1.616.326.685.833l0,3.555c-.005.2.1.779.452.909.283.092.469-.134.639-.313a11.023,11.023,0,0,0,1.8-2.77c.217-.438.4-.892.584-1.346a.685.685,0,0,1,.723-.5l3.08,0a1.624,1.624,0,0,1,.272.016c.519.088.661.312.5.819a7.691,7.691,0,0,1-1.225,2.124c-.514.711-1.063,1.4-1.572,2.112-.468.653-.431.982.151,1.549Zm0,0" transform="translate(0)"/>
  </g>
</svg>
