<svg xmlns="http://www.w3.org/2000/svg" viewBox="-975 4813 70 70">
  <defs>
    <style>
      .cls-1 {
        fill: #fe0900;
      }

      .cls-2 {
        fill: #fff;
      }
    </style>
  </defs>
  <g id="customer-service_1_" data-name="customer-service (1)" transform="translate(-975 4813)">
    <g id="Group_36" data-name="Group 36">
      <circle id="Ellipse_51" data-name="Ellipse 51" class="cls-1" cx="5.645" cy="5.645" r="5.645" transform="translate(54.194 4.516)"/>
      <path id="Path_89" data-name="Path 89" class="cls-1" d="M19.567,28.507,8.656,20.323H3.387A3.391,3.391,0,0,1,0,16.935V3.387A3.391,3.391,0,0,1,3.387,0H23.71A3.391,3.391,0,0,1,27.1,3.387V16.935a3.391,3.391,0,0,1-3.387,3.387H18.4Z"/>
    </g>
    <path id="Path_90" data-name="Path 90" d="M128.142,172.533l-7.409-1.346V170.6a11.362,11.362,0,0,0,3.366-2.989h2.28a3.391,3.391,0,0,0,3.387-3.387v-16.8a7.081,7.081,0,0,0-5.057-6.793l-.565-.565a13.9,13.9,0,0,0-23.733,9.83v8.679a4.524,4.524,0,0,0,3.6,4.422,11.311,11.311,0,0,0,5.432,7.6v.586l-7.409,1.347a7.871,7.871,0,0,0-6.157,5.505l-2.63,8.767h43.68l-2.63-8.768A7.872,7.872,0,0,0,128.142,172.533Zm-17.852.795,3.08,2.31-2.3,2.3-1.5-4.483Zm4.8.777-3.291-2.468a11.248,11.248,0,0,0,6.582,0Zm4.8-.777.719.131-1.5,4.483-2.3-2.3Zm6.492-7.973h-.95a11.214,11.214,0,0,0,.736-2.352,4.472,4.472,0,0,0,1.342-.534v1.757A1.13,1.13,0,0,1,126.378,165.355Zm0-8.718a2.238,2.238,0,0,1,0,3.888Zm-23.71,1.944a2.251,2.251,0,0,1,1.129-1.944v3.887A2.247,2.247,0,0,1,102.669,158.581Zm1.129-5.645v1.289a4.478,4.478,0,0,0-1.129.467V149.9a11.644,11.644,0,0,1,19.878-8.233l1,1,.3.076a4.826,4.826,0,0,1,3.66,4.689v7.263a4.437,4.437,0,0,0-1.129-.467v-1.289H122.8a9.822,9.822,0,0,1-7.819-3.908l-.9-1.2-2.245,2.245a9.709,9.709,0,0,1-6.911,2.862Zm2.258,7.9v-5.7a11.937,11.937,0,0,0,7.378-3.473l.439-.439a12.1,12.1,0,0,0,8.924,3.963h1.323v5.645a8.964,8.964,0,0,1-1.222,4.516h-7.811v2.258h5.955a9.018,9.018,0,0,1-14.987-6.773Zm-9.773,23.71,1.759-5.861a5.62,5.62,0,0,1,4.4-3.932l4.889-.889,2.751,8.255,5.008-5.01,5.011,5.01,2.751-8.255,4.889.889a5.622,5.622,0,0,1,4.4,3.931l1.757,5.862Z" transform="translate(-80.088 -116.806)"/>
    <rect id="Rectangle_2806" data-name="Rectangle 2806" class="cls-2" width="18.065" height="2.258" transform="translate(4.516 4.516)"/>
    <rect id="Rectangle_2807" data-name="Rectangle 2807" class="cls-2" width="13.548" height="2.258" transform="translate(4.516 13.548)"/>
    <path id="Path_91" data-name="Path 91" d="M368.935,17.729a10.161,10.161,0,1,0-13.548,0v1.464h-2.258v2.258h2.258v4.516h13.548V21.452h2.258V19.194h-2.258Zm-11.713-1.4a7.9,7.9,0,1,1,9.877,0l-.422.339v2.529H363.29V13.341a3.387,3.387,0,1,0-2.258,0v5.853h-3.387V16.665Zm3.809-6.165a1.129,1.129,0,1,1,1.129,1.129A1.13,1.13,0,0,1,361.032,10.161Zm5.645,13.548h-9.032V21.452h9.032Z" transform="translate(-302.323)"/>
    <rect id="Rectangle_2808" data-name="Rectangle 2808" class="cls-2" width="18.065" height="2.258" transform="translate(4.516 9.032)"/>
    <rect id="Rectangle_2809" data-name="Rectangle 2809" class="cls-2" width="2.258" height="2.258" transform="translate(20.323 13.548)"/>
  </g>
</svg>
