<svg xmlns="http://www.w3.org/2000/svg" viewBox="-1156.186 3143 60.415 70">
  <defs>
    <style>
      .cls-1 {
        fill: #fe0900;
      }

      .cls-2 {
        fill: #333;
      }
    </style>
  </defs>
  <g id="goal_2_" data-name="goal (2)" transform="translate(-1175.719 3143.006)">
    <g id="Group_28" data-name="Group 28" transform="translate(19.533 -0.006)">
      <rect id="Rectangle_2775" data-name="Rectangle 2775" class="cls-1" width="8.293" height="8.293" transform="translate(34.497 6.9) rotate(-56.312)"/>
      <path id="Path_42" data-name="Path 42" class="cls-2" d="M71.373,76.677A3.4,3.4,0,0,0,73.6,73.008L71.654,58.417V48.05l8.485-3.03A3.182,3.182,0,0,0,82.195,42.6l1.29-7.1,10.551,6.713,1.235-1.941L83.856,33.01a3.375,3.375,0,0,0-4.7-2.993l-9.182-5.843-1.235,1.941,8.7,5.536a3.432,3.432,0,0,0-.312.965l-1.067,6.935-6.75,2.285a6.812,6.812,0,0,0-8.718-.319l-.355.294c-.086.075-1.97,1.786-3.53,3.2V41.367a3.545,3.545,0,0,0-2.878-3.526,3.453,3.453,0,0,0-4.021,3.4v9.375a4.423,4.423,0,0,0,7.383,3.288l.667-.6v5.109L55.921,72.925a3.479,3.479,0,0,0,2.218,3.751,23.9,23.9,0,0,0-5.309,2.2L39.837,86.241l1.134,2,12.993-7.363a22,22,0,0,1,21.583,0l12.993,7.363,1.134-2L76.681,78.878A23.986,23.986,0,0,0,71.373,76.677ZM55.649,52.2a2.124,2.124,0,0,1-3.544-1.579V41.244a1.144,1.144,0,0,1,.406-.876,1.163,1.163,0,0,1,.946-.258,1.248,1.248,0,0,1,.948,1.257v8.847l1.923-1.748s5.221-4.745,5.4-4.9l.289-.24a4.6,4.6,0,0,1,6.14.6l.506.56,9.461-3.2L79.4,32.965c0-.02.015-.035.018-.054l1.973,1.256-1.458,8.021a.877.877,0,0,1-.566.666L69.354,46.43V58.493L71.32,73.312a1.123,1.123,0,0,1-.329.957,1.111,1.111,0,0,1-.98.308,1.211,1.211,0,0,1-.944-1.065L66.911,57.343H62.6L60.428,73.611a1.129,1.129,0,0,1-.5.793,1.155,1.155,0,0,1-.956.142,1.187,1.187,0,0,1-.776-1.317l1.945-14.585.012-10.5Zm6,23.752a3.422,3.422,0,0,0,1.057-2.034l1.9-14.273H64.9l1.89,14.174a3.611,3.611,0,0,0,1.091,2.137A24.421,24.421,0,0,0,61.652,75.95Z" transform="translate(-34.856 -18.242)"/>
      <path id="Path_43" data-name="Path 43" class="cls-2" d="M127.082,39.718a6.9,6.9,0,1,0-6.9,6.9A6.907,6.907,0,0,0,127.082,39.718Zm-6.9,4.6a4.6,4.6,0,1,1,4.6-4.6A4.6,4.6,0,0,1,120.183,44.317Z" transform="translate(-90.284 -24.766)"/>
      <path id="Path_44" data-name="Path 44" class="cls-2" d="M239.758,126.568h-2.3v2.3h-2.3v2.3h2.3v2.3h2.3v-2.3h2.3v-2.3h-2.3Z" transform="translate(-182.261 -95.517)"/>
      <path id="Path_45" data-name="Path 45" class="cls-2" d="M205.8,159.293v-1.15h1.15v-2.3H205.8v-1.15h-2.3v1.15h-1.15v2.3h1.15v1.15Z" transform="translate(-157.498 -116.742)"/>
      <path id="Path_46" data-name="Path 46" class="cls-2" d="M230.383,168.755h-2.3v2.3h-2.3v2.3h2.3v2.3h2.3v-2.3h2.3v-2.3h-2.3Z" transform="translate(-175.186 -127.354)"/>
      <path id="Path_47" data-name="Path 47" class="cls-2" d="M64.02,20.968h2.3v-2.3h2.3v-2.3h-2.3v-2.3h-2.3v2.3h-2.3v2.3h2.3Z" transform="translate(-51.371 -10.615)"/>
      <path id="Path_48" data-name="Path 48" class="cls-2" d="M22.983,13.98V12.83h1.15v-2.3h-1.15V9.38h-2.3v1.15h-1.15v2.3h1.15v1.15Z" transform="translate(-19.533 -7.077)"/>
      <path id="Path_49" data-name="Path 49" class="cls-2" d="M33.508,49.093v-2.3h2.3v-2.3h-2.3v-2.3h-2.3v2.3h-2.3v2.3h2.3v2.3Z" transform="translate(-26.608 -31.841)"/>
    </g>
  </g>
</svg>
