<svg xmlns="http://www.w3.org/2000/svg" viewBox="-366.42 969 55 55">
  <defs>
    <style>
      .cls-1 {
        fill: #fe0900;
      }

      .cls-2 {
        fill: #333;
      }
    </style>
  </defs>
  <g id="presentation_1_" data-name="presentation (1)" transform="translate(-366.42 969)">
    <g id="Group_25" data-name="Group 25">
      <path id="Path_38" data-name="Path 38" class="cls-1" d="M47.6,58.1a8.871,8.871,0,1,0,8.871,8.871H47.6Z" transform="translate(-31.633 -47.45)"/>
      <path id="Path_39" data-name="Path 39" class="cls-1" d="M101.667,43.572v8.871h8.871A8.871,8.871,0,0,0,101.667,43.572Z" transform="translate(-83.038 -35.588)"/>
      <path id="Path_40" data-name="Path 40" class="cls-2" d="M55,5.323V0H0V5.323H2.661V37.258H0v5.323H15.419L9.852,53.716l1.587.794L17.4,42.581h9.21V54.113h1.774V42.581H37.6l5.965,11.929.452-.226a3.492,3.492,0,0,0,4.776-.509A3.534,3.534,0,0,0,55,51.452V25.941a6.4,6.4,0,0,0-4.016-6.016,5.308,5.308,0,0,0,1.354-8.8v-5.8ZM1.774,3.548V1.774H53.226V3.549H1.774Zm0,35.484H42.581v1.774H1.774Zm40.806,3.548v6l-3-6ZM53.226,25.941v25.51a1.774,1.774,0,0,1-3.549,0V39.032H47.9V51.452a1.774,1.774,0,1,1-3.549,0V26.43l-5,2.224a1.614,1.614,0,0,1-1.79-.333l-4.554-4.554a.995.995,0,0,1,1.407-1.407l4.5,4.5.6-.391c2.752-1.788,6.923-4.5,7.114-4.616a4.419,4.419,0,0,1,2.684-.533A4.6,4.6,0,0,1,53.226,25.941ZM48.79,18.629a3.548,3.548,0,1,1,3.548-3.548A3.552,3.552,0,0,1,48.79,18.629Zm1.774-8.56a5.317,5.317,0,0,0-3.973,9.854,6.175,6.175,0,0,0-.83.385c-.1.054-2.319,1.495-6.61,4.284l-3.484-3.484a2.771,2.771,0,0,0-3.023-.6l-4.4-6.8-1.49.964,4.552,7.035a2.735,2.735,0,0,0,.445,3.312l4.554,4.554a3.4,3.4,0,0,0,3.766.7l2.509-1.117v8.1H4.435V5.323H50.564Z"/>
      <rect id="Rectangle_2751" data-name="Rectangle 2751" class="cls-2" width="14.194" height="1.774" transform="translate(20.403 30.161)"/>
      <rect id="Rectangle_2752" data-name="Rectangle 2752" class="cls-2" width="11.532" height="1.774" transform="translate(23.064 33.71)"/>
      <rect id="Rectangle_2753" data-name="Rectangle 2753" class="cls-2" width="1.774" height="1.774" transform="translate(28.387 7.984)"/>
      <rect id="Rectangle_2754" data-name="Rectangle 2754" class="cls-2" width="1.774" height="1.774" transform="translate(31.935 7.984)"/>
      <rect id="Rectangle_2755" data-name="Rectangle 2755" class="cls-2" width="1.774" height="1.774" transform="translate(35.484 7.984)"/>
      <rect id="Rectangle_2756" data-name="Rectangle 2756" class="cls-2" width="1.774" height="1.774" transform="translate(39.032 7.984)"/>
    </g>
  </g>
</svg>
