<svg xmlns="http://www.w3.org/2000/svg" xmlns:xlink="http://www.w3.org/1999/xlink" viewBox="-773 338 225.667 2">
  <defs>
    <style>
      .cls-1 {
        fill: none;
      }

      .cls-2 {
        clip-path: url(#clip-path);
      }

      .cls-3 {
        fill: #fff;
      }
    </style>
    <clipPath id="clip-path">
      <rect class="cls-1" width="225.667" height="2"/>
    </clipPath>
  </defs>
  <g id="Repeat_Grid_10" data-name="Repeat Grid 10" class="cls-2" transform="translate(-773 338)">
    <g transform="translate(-905 -72)">
      <rect id="Rectangle_851" data-name="Rectangle 851" class="cls-3" width="4.667" height="2" transform="translate(905 72)"/>
    </g>
    <g transform="translate(-895 -72)">
      <rect id="Rectangle_851-2" data-name="Rectangle 851" class="cls-3" width="4.667" height="2" transform="translate(905 72)"/>
    </g>
    <g transform="translate(-885 -72)">
      <rect id="Rectangle_851-3" data-name="Rectangle 851" class="cls-3" width="4.667" height="2" transform="translate(905 72)"/>
    </g>
    <g transform="translate(-875 -72)">
      <rect id="Rectangle_851-4" data-name="Rectangle 851" class="cls-3" width="4.667" height="2" transform="translate(905 72)"/>
    </g>
    <g transform="translate(-865 -72)">
      <rect id="Rectangle_851-5" data-name="Rectangle 851" class="cls-3" width="4.667" height="2" transform="translate(905 72)"/>
    </g>
    <g transform="translate(-855 -72)">
      <rect id="Rectangle_851-6" data-name="Rectangle 851" class="cls-3" width="4.667" height="2" transform="translate(905 72)"/>
    </g>
    <g transform="translate(-845 -72)">
      <rect id="Rectangle_851-7" data-name="Rectangle 851" class="cls-3" width="4.667" height="2" transform="translate(905 72)"/>
    </g>
    <g transform="translate(-835 -72)">
      <rect id="Rectangle_851-8" data-name="Rectangle 851" class="cls-3" width="4.667" height="2" transform="translate(905 72)"/>
    </g>
    <g transform="translate(-825 -72)">
      <rect id="Rectangle_851-9" data-name="Rectangle 851" class="cls-3" width="4.667" height="2" transform="translate(905 72)"/>
    </g>
    <g transform="translate(-815 -72)">
      <rect id="Rectangle_851-10" data-name="Rectangle 851" class="cls-3" width="4.667" height="2" transform="translate(905 72)"/>
    </g>
    <g transform="translate(-805 -72)">
      <rect id="Rectangle_851-11" data-name="Rectangle 851" class="cls-3" width="4.667" height="2" transform="translate(905 72)"/>
    </g>
    <g transform="translate(-795 -72)">
      <rect id="Rectangle_851-12" data-name="Rectangle 851" class="cls-3" width="4.667" height="2" transform="translate(905 72)"/>
    </g>
    <g transform="translate(-785 -72)">
      <rect id="Rectangle_851-13" data-name="Rectangle 851" class="cls-3" width="4.667" height="2" transform="translate(905 72)"/>
    </g>
    <g transform="translate(-775 -72)">
      <rect id="Rectangle_851-14" data-name="Rectangle 851" class="cls-3" width="4.667" height="2" transform="translate(905 72)"/>
    </g>
    <g transform="translate(-765 -72)">
      <rect id="Rectangle_851-15" data-name="Rectangle 851" class="cls-3" width="4.667" height="2" transform="translate(905 72)"/>
    </g>
    <g transform="translate(-755 -72)">
      <rect id="Rectangle_851-16" data-name="Rectangle 851" class="cls-3" width="4.667" height="2" transform="translate(905 72)"/>
    </g>
    <g transform="translate(-745 -72)">
      <rect id="Rectangle_851-17" data-name="Rectangle 851" class="cls-3" width="4.667" height="2" transform="translate(905 72)"/>
    </g>
    <g transform="translate(-735 -72)">
      <rect id="Rectangle_851-18" data-name="Rectangle 851" class="cls-3" width="4.667" height="2" transform="translate(905 72)"/>
    </g>
    <g transform="translate(-725 -72)">
      <rect id="Rectangle_851-19" data-name="Rectangle 851" class="cls-3" width="4.667" height="2" transform="translate(905 72)"/>
    </g>
    <g transform="translate(-715 -72)">
      <rect id="Rectangle_851-20" data-name="Rectangle 851" class="cls-3" width="4.667" height="2" transform="translate(905 72)"/>
    </g>
    <g transform="translate(-705 -72)">
      <rect id="Rectangle_851-21" data-name="Rectangle 851" class="cls-3" width="4.667" height="2" transform="translate(905 72)"/>
    </g>
    <g transform="translate(-695 -72)">
      <rect id="Rectangle_851-22" data-name="Rectangle 851" class="cls-3" width="4.667" height="2" transform="translate(905 72)"/>
    </g>
    <g transform="translate(-685 -72)">
      <rect id="Rectangle_851-23" data-name="Rectangle 851" class="cls-3" width="4.667" height="2" transform="translate(905 72)"/>
    </g>
  </g>
</svg>
