<svg xmlns="http://www.w3.org/2000/svg" viewBox="-975 5129 70 70">
  <defs>
    <style>
      .cls-1 {
        fill: #fe0900;
      }

      .cls-2 {
        fill: #333;
      }

      .cls-3 {
        fill: #fff;
      }
    </style>
  </defs>
  <g id="statistics_2_" data-name="statistics (2)" transform="translate(-975 5129)">
    <circle id="Ellipse_49" data-name="Ellipse 49" class="cls-1" cx="5.645" cy="5.645" r="5.645" transform="translate(56.452 13.548)"/>
    <path id="Path_81" data-name="Path 81" class="cls-2" d="M93.258,78.774a3.387,3.387,0,1,0-3.387-3.387,3.354,3.354,0,0,0,.38,1.528L85.73,81.939,84.049,79.3,82.143,80.51l2.018,3.171-1.949,2.165a3.288,3.288,0,0,0-2.824.042l-5.662-5.662a3.356,3.356,0,0,0,.339-1.452,3.387,3.387,0,1,0-6.774,0,3.348,3.348,0,0,0,.426,1.611l-7.045,8.806a3.352,3.352,0,0,0-1.284-.256,3.387,3.387,0,1,0,3.387,3.387,3.348,3.348,0,0,0-.426-1.611L69.394,81.9a3.3,3.3,0,0,0,2.735-.084l5.662,5.662a3.355,3.355,0,0,0-.339,1.452,3.387,3.387,0,1,0,6.774,0,3.351,3.351,0,0,0-.38-1.528l1.575-1.75,4.627,7.271,1.906-1.213-4.964-7.8,4.9-5.439A3.368,3.368,0,0,0,93.258,78.774ZM59.387,93.452a1.129,1.129,0,1,1,1.129-1.129A1.129,1.129,0,0,1,59.387,93.452ZM69.548,78.774A1.129,1.129,0,1,1,70.677,79.9,1.129,1.129,0,0,1,69.548,78.774Zm11.29,11.29a1.129,1.129,0,1,1,1.129-1.129A1.129,1.129,0,0,1,80.839,90.065ZM93.258,74.258a1.129,1.129,0,1,1-1.129,1.129A1.129,1.129,0,0,1,93.258,74.258Z" transform="translate(-48.097 -61.839)"/>
    <path id="Path_82" data-name="Path 82" class="cls-1" d="M315.394,206.586V191.054a6.959,6.959,0,0,0-5.979-7,6.751,6.751,0,0,0-4.1.816c-.161.09-9.117,5.912-9.117,5.912L291.12,185.7a2.4,2.4,0,0,0-3.387,0h0a2.4,2.4,0,0,0,0,3.387l5.8,5.8a3.174,3.174,0,0,0,3.535.656l4.781-2.125v13.172Z" transform="translate(-246.523 -158.038)"/>
    <g id="Group_34" data-name="Group 34">
      <path id="Path_83" data-name="Path 83" class="cls-2" d="M70,0H0V6.774H3.387V54.194H8a6.788,6.788,0,0,0,3.879,5.035,7.911,7.911,0,0,0-5.11,7.384V70H22.581V66.613a7.911,7.911,0,0,0-5.11-7.384,6.788,6.788,0,0,0,3.879-5.035h6.979a6.788,6.788,0,0,0,3.879,5.035A7.91,7.91,0,0,0,27.1,66.613V70H42.9V66.613a7.911,7.911,0,0,0-5.11-7.384,6.788,6.788,0,0,0,3.879-5.035h6.979a6.788,6.788,0,0,0,3.879,5.035,7.91,7.91,0,0,0-5.111,7.384V70H63.226V66.613a7.911,7.911,0,0,0-5.11-7.384,6.77,6.77,0,1,0-9.466-7.294H41.673a6.766,6.766,0,0,0-13.345,0H21.35A6.766,6.766,0,0,0,8,51.935H5.645V6.774h58.71v5.645h2.258V6.774H70ZM60.968,66.613v1.129H49.677V66.613a5.645,5.645,0,0,1,11.29,0ZM55.323,48.548a4.516,4.516,0,1,1-4.516,4.516A4.521,4.521,0,0,1,55.323,48.548ZM40.645,66.613v1.129H29.355V66.613a5.645,5.645,0,0,1,11.29,0ZM35,48.548a4.516,4.516,0,1,1-4.516,4.516A4.521,4.521,0,0,1,35,48.548ZM20.323,66.613v1.129H9.032V66.613a5.645,5.645,0,0,1,11.29,0ZM14.677,48.548a4.516,4.516,0,1,1-4.516,4.516A4.521,4.521,0,0,1,14.677,48.548ZM67.742,4.516H2.258V2.258H67.742Z"/>
      <path id="Path_84" data-name="Path 84" class="cls-3" d="M417.118,186.344l-2.589,2.589-2.589-2.589-1.6,1.6L413.4,191v8.565h2.258V191l3.056-3.056Z" transform="translate(-352.433 -160.045)"/>
      <rect id="Rectangle_2795" data-name="Rectangle 2795" class="cls-2" width="18.065" height="2.258" transform="translate(18.065 36.129)"/>
      <rect id="Rectangle_2796" data-name="Rectangle 2796" class="cls-2" width="14.677" height="2.258" transform="translate(21.452 40.645)"/>
    </g>
  </g>
</svg>
