<svg xmlns="http://www.w3.org/2000/svg" viewBox="-975 5445 70 70">
  <defs>
    <style>
      .cls-1 {
        fill: #fe0900;
      }

      .cls-2 {
        fill: #333;
      }
    </style>
  </defs>
  <g id="team_9_" data-name="team (9)" transform="translate(-975 5445)">
    <path id="Path_92" data-name="Path 92" class="cls-1" d="M186.161,104a10.155,10.155,0,0,0-5.645,18.6v3.98h11.29V122.6a10.155,10.155,0,0,0-5.645-18.6Zm0,12.419a2.258,2.258,0,1,1,2.258-2.258A2.257,2.257,0,0,1,186.161,116.419Z" transform="translate(-151.161 -89.323)"/>
    <g id="Group_37" data-name="Group 37">
      <path id="Path_93" data-name="Path 93" class="cls-2" d="M15.806,20.323a7.911,7.911,0,0,0-5.11-7.384,6.774,6.774,0,1,0-5.586,0A7.911,7.911,0,0,0,0,20.323V23.71H15.806ZM3.387,6.774A4.516,4.516,0,1,1,7.9,11.29,4.521,4.521,0,0,1,3.387,6.774ZM13.548,21.452H2.258V20.323a5.645,5.645,0,0,1,11.29,0Z"/>
      <path id="Path_94" data-name="Path 94" class="cls-2" d="M202.7,340.939a6.774,6.774,0,1,0-5.586,0,7.911,7.911,0,0,0-5.11,7.384v3.387h15.806v-3.387A7.911,7.911,0,0,0,202.7,340.939Zm-7.309-6.165a4.516,4.516,0,1,1,4.516,4.516A4.521,4.521,0,0,1,195.387,334.774Zm10.161,14.677h-11.29v-1.129a5.645,5.645,0,0,1,11.29,0Z" transform="translate(-164.903 -281.71)"/>
      <path id="Path_95" data-name="Path 95" class="cls-2" d="M394.7,12.939a6.774,6.774,0,1,0-5.586,0A7.911,7.911,0,0,0,384,20.323V23.71h15.806V20.323A7.911,7.911,0,0,0,394.7,12.939Zm-7.309-6.165A4.516,4.516,0,1,1,391.9,11.29,4.521,4.521,0,0,1,387.387,6.774Zm10.161,14.677h-11.29V20.323a5.645,5.645,0,0,1,11.29,0Z" transform="translate(-329.806)"/>
      <rect id="Rectangle_2810" data-name="Rectangle 2810" class="cls-2" width="30.062" height="2.258" transform="matrix(-0.563, 0.826, -0.826, -0.563, 63.035, 27.735)"/>
      <rect id="Rectangle_2811" data-name="Rectangle 2811" class="cls-2" width="2.258" height="30.061" transform="translate(25.769 51.299) rotate(145.714)"/>
      <rect id="Rectangle_2812" data-name="Rectangle 2812" class="cls-2" width="32.067" height="2.258" transform="translate(18.967 2.258)"/>
      <path id="Path_96" data-name="Path 96" class="cls-2" d="M204.984,165.548h-3.952v-6.982a3.387,3.387,0,1,0-2.258,0v6.982h-3.952a2.817,2.817,0,0,0-1.5,5.2,2.8,2.8,0,0,0,2.63,3.827h7.9a2.8,2.8,0,0,0,2.63-3.827,2.817,2.817,0,0,0-1.5-5.2Zm-5.081-11.29a1.129,1.129,0,1,1-1.129,1.129A1.129,1.129,0,0,1,199.9,154.258Zm-5.081,13.548h10.161a.565.565,0,1,1,0,1.129H194.823a.565.565,0,0,1,0-1.129Zm9.032,4.516h-7.9a.565.565,0,1,1,0-1.129h7.9a.565.565,0,0,1,0,1.129Z" transform="translate(-164.903 -130.548)"/>
      <rect id="Rectangle_2813" data-name="Rectangle 2813" class="cls-2" width="2.258" height="4.516" transform="translate(33.871 7.903)"/>
      <rect id="Rectangle_2814" data-name="Rectangle 2814" class="cls-2" width="2.258" height="4.516" transform="translate(29.768 13.52) rotate(150.007)"/>
      <rect id="Rectangle_2815" data-name="Rectangle 2815" class="cls-2" width="2.258" height="4.516" transform="translate(24.809 17.655) rotate(119.993)"/>
      <rect id="Rectangle_2816" data-name="Rectangle 2816" class="cls-2" width="4.516" height="2.258" transform="translate(18.065 23.71)"/>
      <rect id="Rectangle_2817" data-name="Rectangle 2817" class="cls-2" width="4.516" height="2.258" transform="translate(24.809 32.027) rotate(150.007)"/>
      <rect id="Rectangle_2818" data-name="Rectangle 2818" class="cls-2" width="2.258" height="4.516" transform="translate(50.231 32.328) rotate(119.993)"/>
      <rect id="Rectangle_2819" data-name="Rectangle 2819" class="cls-2" width="4.516" height="2.258" transform="translate(47.419 23.71)"/>
      <rect id="Rectangle_2820" data-name="Rectangle 2820" class="cls-2" width="4.516" height="2.258" transform="translate(50.233 17.349) rotate(150.007)"/>
      <rect id="Rectangle_2821" data-name="Rectangle 2821" class="cls-2" width="4.516" height="2.258" transform="matrix(-0.5, 0.866, -0.866, -0.5, 44.445, 10.734)"/>
    </g>
  </g>
</svg>
